<?xml version="1.0" standalone="no"?>
<!DOCTYPE svg PUBLIC "-//W3C//DTD SVG 20010904//EN"
 "http://www.w3.org/TR/2001/REC-SVG-20010904/DTD/svg10.dtd">
<svg version="1.0" xmlns="http://www.w3.org/2000/svg"
 width="260.000000pt" height="260.000000pt" viewBox="0 0 260.000000 260.000000"
 preserveAspectRatio="xMidYMid meet">
<metadata>
Created by potrace 1.14, written by Peter Selinger 2001-2017
</metadata>
<g transform="translate(0.000000,260.000000) scale(0.100000,-0.100000)"
fill="#000000" stroke="none">
<path d="M691 2128 c-1 -35 -5 -48 -16 -48 -8 0 -15 -4 -15 -10 0 -5 6 -10 14
-10 12 0 15 -72 20 -432 9 -625 20 -995 29 -1004 4 -4 7 0 7 9 0 15 2 15 18
-1 9 -10 43 -50 76 -90 59 -73 75 -88 56 -52 -11 20 -8 20 190 20 l200 0 1
-27 c2 -24 2 -25 6 -6 5 26 13 29 32 11 10 -11 11 -10 6 4 -6 15 -1 18 21 19
l29 1 -33 11 -34 10 7 166 c4 91 8 212 8 269 l1 103 66 -3 65 -3 -1 -50 c-1
-27 -4 -149 -7 -270 -3 -121 -3 -200 1 -175 6 36 8 41 14 22 3 -12 11 -21 16
-20 6 2 31 -18 56 -44 41 -44 78 -65 60 -36 -5 8 -2 9 12 3 10 -5 105 -9 209
-10 105 0 195 -3 202 -8 22 -14 25 14 4 37 -20 22 -21 28 -15 252 3 126 12
333 20 459 9 127 15 301 15 387 -1 153 13 298 30 308 12 8 -21 69 -34 64 -7
-2 -41 20 -77 49 -73 59 -103 75 -93 50 6 -14 -9 -15 -138 -9 -79 4 -156 7
-171 8 -18 1 -30 8 -33 19 -10 30 -25 22 -26 -13 -1 -18 -1 -37 0 -42 3 -13
-29 -509 -33 -521 -2 -6 -31 -9 -69 -7 -59 3 -65 6 -64 25 0 12 -5 69 -11 127
-7 58 -15 148 -18 201 l-6 96 -63 42 c-48 31 -65 49 -70 71 -6 29 -25 42 -25
18 0 -9 -4 -8 -10 2 -8 12 -10 12 -10 1 0 -11 -3 -11 -15 -1 -10 9 -15 9 -15
1 0 -8 -54 -11 -180 -11 -153 0 -180 2 -180 15 0 8 -4 15 -9 15 -5 0 -12 12
-14 28 -2 16 -5 9 -6 -20z m424 -77 c7 -12 32 -228 46 -393 l11 -146 32 -6
c18 -4 91 -9 163 -12 l131 -6 -1 29 c0 75 14 337 20 346 3 5 5 46 4 92 l-1 82
43 6 c23 3 98 4 167 1 69 -2 130 -4 137 -4 7 0 9 -13 6 -39 -3 -23 -1 -41 6
-45 14 -9 14 -168 1 -716 -6 -234 -15 -456 -21 -495 -6 -38 -11 -81 -12 -95
l-2 -25 -125 0 c-69 0 -150 1 -180 3 l-55 4 -3 176 c-1 97 -7 212 -13 255 -6
50 -7 83 0 95 9 16 -1 18 -117 29 -70 6 -134 10 -143 7 -12 -3 -16 -17 -16
-52 -1 -26 -6 -78 -12 -117 -6 -38 -15 -131 -20 -205 -6 -74 -10 -136 -11
-137 -1 -7 -155 -1 -250 8 -58 6 -113 11 -122 10 -24 0 -29 27 -26 124 2 44
-3 240 -9 435 -7 195 -15 455 -17 578 l-4 223 194 -1 c107 -1 196 -5 199 -9z
m805 -78 c0 -9 15 -33 33 -52 31 -33 23 -34 -18 -2 -11 8 -4 -1 14 -22 38 -41
32 -50 -8 -15 -14 13 -10 6 8 -15 19 -20 41 -37 49 -37 9 0 12 -6 8 -16 -4 -9
-1 -23 6 -32 10 -12 10 -16 1 -19 -7 -2 -9 -11 -6 -20 4 -10 2 -14 -5 -9 -6 3
-11 14 -11 24 1 35 -7 50 -43 81 -30 26 -36 38 -35 69 0 20 -3 47 -7 60 -5 13
-3 22 3 22 6 0 11 -8 11 -17z m-714 -111 c-3 -3 2 -11 12 -19 11 -9 5 -8 -17
3 -25 12 -30 18 -20 24 13 9 35 2 25 -8z m810 -19 c-7 -7 -26 7 -26 19 0 6 6
6 15 -2 9 -7 13 -15 11 -17z m-44 -48 c9 -16 8 -18 -3 -7 -25 24 -32 12 -8
-15 26 -29 7 -22 -28 10 -23 21 -32 44 -12 31 8 -5 8 -1 0 14 -6 11 -11 24
-11 28 0 11 50 -38 62 -61z m-711 -20 c9 -18 9 -19 -4 -2 -16 19 -32 24 -21 5
5 -8 1 -9 -12 -5 -18 7 -18 7 0 -8 11 -8 29 -15 40 -15 17 0 18 -2 7 -9 -10
-6 -25 -4 -43 5 -15 8 -28 12 -28 10 0 -8 59 -37 67 -34 5 2 8 -15 9 -37 0
-23 3 -46 7 -52 8 -13 5 -103 -3 -103 -11 0 -35 20 -36 30 -1 5 -2 15 -3 20 0
6 -7 10 -15 10 -16 0 -28 62 -14 71 5 3 2 9 -8 13 -9 3 -14 9 -11 12 3 3 19
-2 37 -11 18 -9 34 -15 36 -12 2 2 -14 12 -36 22 -39 18 -52 35 -27 35 7 0 5
5 -5 10 -12 7 -16 21 -14 50 2 22 -1 40 -6 40 -4 0 -8 5 -8 11 0 16 80 -33 91
-56z m746 -97 c2 -30 -11 -45 -23 -27 -5 8 -3 9 7 4 8 -5 11 -5 7 -1 -3 4 -10
8 -15 8 -4 0 -17 5 -28 10 -14 8 -12 2 9 -20 16 -17 32 -30 35 -27 10 6 4
-386 -7 -431 -5 -23 -9 -65 -8 -93 2 -39 -1 -51 -13 -51 -12 0 -12 -3 -3 -12
14 -14 16 -88 3 -88 -5 0 -11 7 -15 15 -3 8 -11 15 -17 15 -6 0 1 -16 15 -35
15 -19 24 -40 21 -45 -9 -14 -27 -1 -19 13 4 7 3 9 -1 4 -5 -4 -21 5 -37 20
-31 29 -37 49 -13 39 13 -5 14 -2 5 15 -11 20 -20 159 -10 159 3 0 4 88 3 196
-1 108 1 241 4 295 l6 100 30 -28 30 -28 -22 32 c-12 18 -26 35 -31 38 -6 4
-10 13 -10 22 0 28 95 -68 97 -99z m-598 -524 c27 -6 31 -10 31 -40 0 -19 -2
-34 -5 -34 -3 0 -23 18 -45 40 -40 40 -38 45 19 34z m-119 -176 c0 -4 -4 -8
-10 -8 -6 0 -6 -10 1 -27 17 -44 -5 -48 -40 -6 -32 39 -42 64 -16 43 20 -16
19 -6 -2 28 l-17 27 34 -30 34 -30 -32 41 c-45 58 -40 66 8 14 22 -24 40 -47
40 -52z m-21 -100 c13 -22 18 -38 11 -38 -7 0 -9 -8 -5 -21 5 -15 4 -19 -4
-15 -10 6 -16 -13 -12 -36 3 -18 -17 -6 -37 22 -26 35 -30 59 -7 40 8 -7 15
-8 15 -2 0 5 -7 15 -15 22 -8 7 -15 17 -15 23 0 6 12 0 27 -14 29 -26 22 -7
-10 28 -26 29 -14 42 15 17 21 -18 21 -18 -2 16 -18 28 -19 31 -3 15 11 -11
30 -37 42 -57z m685 13 c16 -17 26 -34 22 -38 -4 -4 -16 3 -26 17 -11 14 -20
20 -20 13 0 -6 11 -25 25 -41 28 -33 32 -47 11 -39 -10 4 -12 0 -9 -14 3 -11
9 -22 14 -25 5 -3 9 -10 9 -16 0 -21 -37 22 -65 76 -24 46 -26 57 -16 70 7 9
18 13 24 9 6 -3 7 -1 3 5 -4 6 -13 9 -21 5 -10 -3 -15 1 -15 11 0 22 24 9 64
-33z m-29 -123 c-2 -10 0 -16 5 -13 10 6 53 -45 44 -54 -3 -3 -12 3 -21 14
-15 19 -15 19 -8 -5 7 -22 6 -23 -8 -12 -9 7 -25 31 -37 53 l-20 40 22 -7 c22
-6 22 -6 6 13 -10 11 -18 24 -18 29 0 5 9 -2 19 -15 11 -14 18 -33 16 -43z
m-696 -2 c18 -19 24 -39 28 -95 2 -39 2 -71 0 -71 -3 0 -19 22 -37 50 -30 46
-33 79 -7 63 7 -3 3 3 -7 15 -23 26 -11 29 18 5 21 -18 21 -18 0 7 -43 51 -39
73 5 26z m713 -92 c18 -16 27 -22 21 -14 -7 8 -13 19 -13 24 0 23 25 -17 25
-41 1 -25 1 -25 -31 10 -18 19 -34 33 -37 31 -2 -3 -10 2 -16 10 -22 27 16 12
51 -20z m-1055 -28 c-3 -6 11 -29 30 -51 34 -39 34 -39 18 -7 -8 18 -12 32 -8
31 21 -3 22 3 7 29 l-16 27 21 -24 c11 -12 19 -27 16 -31 -3 -5 -1 -11 5 -15
5 -3 10 -12 10 -18 0 -7 -7 -3 -15 7 -8 11 -15 16 -15 10 0 -5 9 -20 20 -34
12 -15 18 -18 14 -7 -8 23 3 22 15 -2 9 -16 7 -18 -22 -16 -18 2 -34 4 -37 5
-3 1 -8 2 -11 2 -3 -1 -6 5 -6 11 0 7 -8 25 -18 41 -20 30 -28 69 -13 60 5 -4
7 -11 5 -18z m290 8 c20 -8 83 -93 83 -112 0 -4 -20 -6 -45 -4 -37 3 -48 9
-62 33 -10 16 -21 29 -26 29 -5 0 -2 -11 7 -25 18 -27 20 -35 8 -35 -4 0 -16
14 -26 31 -10 17 -20 28 -23 26 -2 -3 3 -17 12 -31 10 -14 13 -26 8 -26 -10 0
-48 59 -48 75 0 6 -4 16 -9 23 -13 22 3 27 19 6 14 -19 14 -19 15 1 1 19 1 19
14 2 13 -17 14 -16 19 2 5 20 15 21 54 5z m-137 -22 c0 -10 11 -34 25 -53 l24
-36 -24 0 c-14 0 -25 4 -25 9 0 5 5 6 10 3 16 -10 11 8 -10 35 -11 14 -20 20
-20 15 0 -6 5 -16 12 -23 6 -6 9 -14 6 -18 -4 -3 -14 9 -23 26 -11 21 -12 29
-4 24 9 -5 10 -2 6 10 -4 10 -4 22 -1 27 8 13 24 1 24 -19z m929 -36 c-3 -3
-18 12 -33 32 l-29 37 34 -32 c18 -18 31 -35 28 -37z m-1086 -15 c10 -17 14
-31 9 -31 -9 0 -20 14 -59 78 l-17 27 25 -22 c13 -12 32 -36 42 -52z m147 -33
c0 -21 -19 -3 -39 35 l-23 42 31 -35 c17 -19 31 -38 31 -42z m815 52 c3 -5 11
-7 18 -4 13 5 83 -73 74 -82 -13 -13 -103 -9 -121 5 -18 15 -19 15 -13 -4 5
-13 -5 -7 -28 17 -19 21 -35 34 -35 29 0 -5 7 -14 15 -21 25 -21 17 -32 -10
-13 -13 10 -23 23 -20 30 2 7 -1 15 -7 19 -7 4 -8 3 -4 -4 12 -20 -10 -13 -29
8 -10 11 -13 20 -7 20 6 0 14 -5 17 -10 4 -7 12 -7 25 0 13 7 21 7 25 0 3 -5
11 -10 16 -10 6 0 8 4 4 9 -5 8 10 13 62 20 6 0 14 -3 18 -9z m-188 -22 c11
-12 12 -18 4 -18 -7 0 -9 -5 -5 -12 4 -7 -7 0 -24 16 -18 17 -32 31 -32 32 0
10 44 -4 57 -18z m354 -85 c13 -16 12 -17 -3 -4 -17 13 -22 21 -14 21 2 0 10
-8 17 -17z"/>
<path d="M1181 1484 c0 -11 3 -14 6 -6 3 7 2 16 -1 19 -3 4 -6 -2 -5 -13z"/>
<path d="M1207 1799 c7 -7 15 -10 18 -7 3 3 -2 9 -12 12 -14 6 -15 5 -6 -5z"/>
<path d="M1930 1648 c0 -3 14 -17 30 -33 17 -16 30 -24 30 -18 0 7 -13 21 -30
33 -16 12 -30 20 -30 18z"/>
<path d="M1945 1590 c10 -11 20 -20 23 -20 3 0 -3 9 -13 20 -10 11 -20 20 -23
20 -3 0 3 -9 13 -20z"/>
<path d="M1920 1556 c0 -2 8 -10 18 -17 15 -13 16 -12 3 4 -13 16 -21 21 -21
13z"/>
<path d="M1920 1042 c0 -5 12 -19 27 -33 l27 -24 -23 33 c-23 32 -31 39 -31
24z"/>
</g>
</svg>
